# xmcd CD database file
# Copyright (C) 1997 Ti Kan
# 
# Track frame offsets:
#     150
#     12290
#     25705
#     38362
#     54145
#     68075
#     81560
#     97600
#     108822
#     124697
#     148887
#     167207
#     179515
#     196452
#     209932
# 
# Disc length: 3042 seconds
# 
# Revision: 1
# Processed by: cddbd v1.4b41PL1 Copyright (c) Steve Scherf et al.
# Submitted via: DiscPlay 4.0.4
# 
DISCID=c80be00f
DTITLE=Chairmen Of The Board - Greatest Hits
DYEAR=1900
DGENRE=
TTITLE0=Give Me Just A Little More Time
TTITLE1=(You've Got Me) Dangling On A String
TTITLE2=Everything's Tuesday
TTITLE3=Patches
TTITLE4=Pay The Piper
TTITLE5=Bless You
TTITLE6=Chairmen Of The Board
TTITLE7=Hanging On To A Memory
TTITLE8=Try On My Love For Size
TTITLE9=Men Are Getting Scarce
TTITLE10=Everybody's Got A Song To Sing
TTITLE11=Let Me Down Easy
TTITLE12=Finders Keepers
TTITLE13=Bravo, Hooray
TTITLE14=Let's Have Some Fun
EXTD=
EXTT0=
EXTT1=
EXTT2=
EXTT3=
EXTT4=
EXTT5=
EXTT6=
EXTT7=
EXTT8=
EXTT9=
EXTT10=
EXTT11=
EXTT12=
EXTT13=
EXTT14=
PLAYORDER=
